<?xml version="1.0" encoding="utf-8"?>
<!-- Generator: Adobe Illustrator 23.0.2, SVG Export Plug-In . SVG Version: 6.00 Build 0)  -->
<svg version="1.1" id="Слой_1" xmlns="http://www.w3.org/2000/svg" xmlns:xlink="http://www.w3.org/1999/xlink" x="0px" y="0px"
	 viewBox="0 0 64 64" style="enable-background:new 0 0 64 64;" xml:space="preserve">
<style type="text/css">
	.st0{fill:#009600;}
	.st1{fill:#0078C4;}
	.st2{enable-background:new    ;}
	.st3{fill:#FFFFFF;}
</style>
<g id="Слой_6_2_">
	<path class="st0" d="M14.3,46.3l17.2,17.2c0.2,0.2,0.5,0.2,0.7,0l30.6-30.6c0.2-0.2,0.2-0.5,0-0.7L53.7,23c-0.2-0.2-0.5-0.2-0.7,0
		L32.2,43.8c-0.2,0.2-0.5,0.2-0.7,0l-7.3-7.3c-0.2-0.2-0.5-0.2-0.7,0l-9.1,9.1C14.1,45.7,14.1,46.1,14.3,46.3z"/>
	<path class="st1" d="M0.9,32.8l8.2,8.2c0.2,0.2,0.5,0.2,0.7,0L31.5,21c0.2-0.2,0.5-0.2,0.7,0l7.3,7.3c0.2,0.2,0.5,0.2,0.7,0
		l9.1-9.1c0.2-0.2,0.2-0.5,0-0.7L32.2,1.3c-0.2-0.2-0.5-0.2-0.7,0L22,11V7c0-0.2-0.2-0.5-0.5-0.5h-9.9c-0.2,0-0.5,0.2-0.5,0.5v14.5
		c0,0.2,0,0.2-0.2,0.4L0.7,32.1C0.7,32.3,0.7,32.6,0.9,32.8z"/>
</g>
<path class="st1" d="M60.2,61.7H28.7c-1.7,0-3.1-1.4-3.1-3.1V47.9c0-1.7,1.4-3.1,3.1-3.1h31.5c1.7,0,3.1,1.4,3.1,3.1v10.7
	C63.3,60.4,61.9,61.7,60.2,61.7z"/>
<g class="st2">
	<path class="st3" d="M37.6,55.7c-0.1,1.4-0.5,2.5-1.2,3.2c-0.7,0.7-1.8,1.1-3.1,1.1c-1.4,0-2.5-0.5-3.2-1.4c-0.8-0.9-1.1-2.3-1.1-4
		v-2.1c0-1.7,0.4-3,1.2-4c0.8-0.9,1.9-1.4,3.2-1.4c1.4,0,2.4,0.4,3.1,1.1c0.7,0.8,1.1,1.8,1.2,3.3h-2.5c0-0.9-0.2-1.5-0.4-1.8
		c-0.3-0.3-0.7-0.5-1.4-0.5c-0.7,0-1.1,0.2-1.4,0.7c-0.3,0.5-0.4,1.3-0.4,2.3v2.4c0,1.2,0.1,2.1,0.4,2.6c0.3,0.5,0.8,0.7,1.4,0.7
		c0.7,0,1.1-0.2,1.4-0.5c0.3-0.3,0.4-0.9,0.4-1.8L37.6,55.7L37.6,55.7z"/>
	<path class="st3" d="M41.4,51.4c0.5-0.7,1.2-1,1.9-1c0.8,0,1.5,0.3,1.9,0.9c0.4,0.6,0.7,1.5,0.7,2.7v5.9h-2.4V54
		c0-0.5-0.1-0.9-0.3-1.2c-0.2-0.3-0.4-0.4-0.8-0.4c-0.4,0-0.8,0.2-1,0.6v6.8h-2.4V46.7h2.4C41.4,46.7,41.4,51.4,41.4,51.4z"/>
	<path class="st3" d="M52.1,59.9c-0.1-0.1-0.1-0.4-0.2-0.7c-0.4,0.6-1,0.9-1.8,0.9c-0.8,0-1.4-0.3-1.9-0.8s-0.8-1.2-0.8-2
		c0-1,0.3-1.7,0.9-2.3c0.6-0.5,1.5-0.8,2.7-0.8h0.7v-0.8c0-0.4-0.1-0.7-0.2-0.9c-0.1-0.2-0.4-0.3-0.6-0.3c-0.6,0-0.9,0.4-0.9,1.1
		h-2.4c0-0.9,0.3-1.6,1-2.1c0.6-0.6,1.5-0.8,2.4-0.8c1,0,1.8,0.3,2.4,0.8c0.6,0.5,0.8,1.3,0.8,2.3v4.4c0,0.8,0.1,1.4,0.3,1.9v0.1
		L52.1,59.9L52.1,59.9z M50.6,58.1c0.3,0,0.5-0.1,0.7-0.2c0.2-0.1,0.3-0.2,0.4-0.4v-1.9h-0.6c-0.4,0-0.7,0.1-1,0.4
		c-0.2,0.3-0.4,0.6-0.4,1.1C49.8,57.8,50.1,58.1,50.6,58.1z"/>
	<path class="st3" d="M58.8,48.3v2.3H60v1.8h-1.2V57c0,0.4,0.1,0.6,0.1,0.8c0.1,0.1,0.3,0.2,0.6,0.2c0.2,0,0.4,0,0.6-0.1l0,1.9
		C59.6,60,59.2,60,58.7,60c-1.6,0-2.4-0.9-2.4-2.7v-4.9h-1.1v-1.8h1.1v-2.3C56.3,48.3,58.8,48.3,58.8,48.3z"/>
</g>
</svg>
