<?xml version="1.0" encoding="utf-8"?>
<!-- Generator: Adobe Illustrator 23.0.2, SVG Export Plug-In . SVG Version: 6.00 Build 0)  -->
<svg version="1.1" id="Слой_1" xmlns="http://www.w3.org/2000/svg" xmlns:xlink="http://www.w3.org/1999/xlink" x="0px" y="0px"
	 viewBox="0 0 64 64" style="enable-background:new 0 0 64 64;" xml:space="preserve">
<style type="text/css">
	.st0{fill:#9EA2A8;}
</style>
<g id="Слой_6_1_">
	<path class="st0" d="M14.5,45.8l17,17c0.2,0.2,0.5,0.2,0.7,0l30.3-30.3c0.2-0.2,0.2-0.5,0-0.7l-9-9c-0.2-0.2-0.5-0.2-0.7,0
		L32.3,43.3c-0.2,0.2-0.5,0.2-0.7,0L24.3,36c-0.2-0.2-0.5-0.2-0.7,0l-9,9C14.3,45.2,14.3,45.5,14.5,45.8z"/>
	<path class="st0" d="M1.2,32.5l8.2,8.2c0.2,0.2,0.5,0.2,0.7,0l21.5-19.9c0.2-0.2,0.5-0.2,0.7,0l7.3,7.3c0.2,0.2,0.5,0.2,0.7,0
		l9.1-9.1c0.2-0.2,0.2-0.5,0-0.7l-17-17c-0.2-0.2-0.5-0.2-0.7,0l-9.4,9.6v-4c0-0.2-0.2-0.5-0.5-0.5H12c-0.2,0-0.5,0.2-0.5,0.5v14.4
		c0,0.2,0,0.2-0.2,0.4L1,31.6C1,31.8,1,32.3,1.2,32.5z"/>
</g>
</svg>
