<?xml version="1.0" encoding="utf-8"?>
<!-- Generator: Adobe Illustrator 23.0.2, SVG Export Plug-In . SVG Version: 6.00 Build 0)  -->
<svg version="1.1" id="Слой_1" xmlns="http://www.w3.org/2000/svg" xmlns:xlink="http://www.w3.org/1999/xlink" x="0px" y="0px"
	 viewBox="0 0 64 64" style="enable-background:new 0 0 64 64;" xml:space="preserve">
<style type="text/css">
	.st0{fill:#F5455C;}
	.st1{fill-rule:evenodd;clip-rule:evenodd;fill:#FFFFFF;}
	.st2{fill:#9EA2A8;}
</style>
<g>
	<path class="st0" d="M47.5,56C41.1,56,36,50.9,36,44.5S41.1,33,47.5,33S59,38.1,59,44.5S53.9,56,47.5,56z"/>
	<path class="st1" d="M43.1,40.1h1.1V39h6.6v1.1h1.1v3.3h-1.1v2.2h1.1v3.3h-1.1V50h-6.6v-1.1h-1.1v-2.2h2.2v1.1h4.4v-2.2h-4.4v-2.2
		h4.4v-2.2h-4.4v1.1h-2.2V40.1z"/>
</g>
<g>
	<path class="st2" d="M62.1,32.5l-8.9-8.9c-0.2-0.2-0.5-0.2-0.7,0L46,30.1c0.5-0.1,1-0.1,1.5-0.1c4.8,0,9.1,2.4,11.8,6l2.9-2.9
		C62.3,33,62.3,32.7,62.1,32.5z"/>
	<path class="st2" d="M33,44.5c0-0.5,0-1,0.1-1.5l-1,1c-0.2,0.2-0.5,0.2-0.7,0l-7.2-7.2c-0.2-0.2-0.5-0.2-0.7,0l-8.9,8.9
		c-0.2,0.2-0.2,0.6,0,0.7l16.9,16.9c0.2,0.2,0.5,0.2,0.7,0l7-7C35.4,53.6,33,49.3,33,44.5z"/>
	<path class="st2" d="M32.1,21.6l7.2,7.2c0.2,0.2,0.5,0.2,0.7,0l9-9c0.2-0.2,0.2-0.5,0-0.7L32.1,2.3c-0.2-0.2-0.5-0.2-0.7,0
		l-9.3,9.5V7.9c0-0.2-0.2-0.5-0.5-0.5h-9.7c-0.2,0-0.5,0.2-0.5,0.5v14.2c0,0.2,0,0.2-0.2,0.4l-10,10c0,0.2,0,0.5,0.2,0.7l8.1,8.1
		c0.2,0.2,0.5,0.2,0.7,0l21.2-19.7C31.6,21.5,32,21.5,32.1,21.6z"/>
</g>
</svg>
