<?xml version="1.0" encoding="utf-8"?>
<!-- Generator: Adobe Illustrator 23.0.2, SVG Export Plug-In . SVG Version: 6.00 Build 0)  -->
<svg version="1.1" id="Слой_1" xmlns="http://www.w3.org/2000/svg" xmlns:xlink="http://www.w3.org/1999/xlink" x="0px" y="0px"
	 viewBox="0 0 64 64" style="enable-background:new 0 0 64 64;" xml:space="preserve">
<g id="Слой_6_1_">
	<path d="M14.6,45.8l17,17c0.2,0.2,0.5,0.2,0.7,0l30.3-30.3c0.2-0.2,0.2-0.5,0-0.7l-9-9c-0.2-0.2-0.5-0.2-0.7,0L32.4,43.3
		c-0.2,0.2-0.5,0.2-0.7,0L24.4,36c-0.2-0.2-0.5-0.2-0.7,0l-9,9C14.4,45.2,14.4,45.6,14.6,45.8z"/>
	<path d="M1.3,32.5l8.2,8.2c0.2,0.2,0.5,0.2,0.7,0l21.5-19.9c0.2-0.2,0.5-0.2,0.7,0l7.3,7.3c0.2,0.2,0.5,0.2,0.7,0l9.1-9.1
		c0.2-0.2,0.2-0.5,0-0.7l-17-17c-0.2-0.2-0.5-0.2-0.7,0l-9.4,9.6V6.9c0-0.2-0.2-0.5-0.5-0.5h-9.8c-0.2,0-0.5,0.2-0.5,0.5v14.4
		c0,0.2,0,0.2-0.2,0.4L1.1,31.7C1.1,31.9,1.1,32.3,1.3,32.5z"/>
</g>
</svg>
