<!-- Generator: Adobe Illustrator 22.0.1, SVG Export Plug-In . SVG Version: 6.00 Build 0)  -->
<svg version="1.1" id="layer_1" xmlns="http://www.w3.org/2000/svg" xmlns:xlink="http://www.w3.org/1999/xlink" x="0px" y="0px"
	 viewBox="0 0 36 36" style="enable-background:new 0 0 36 36;" xml:space="preserve">
<style type="text/css">
	.st0{fill:#009600;}
	.st1{fill:#0078C4;}
</style>
<g id="layer_123">
	<path class="st0" d="M8.2,25.7l9.6,9.6c0.1,0.1,0.3,0.1,0.4,0l17.1-17.1c0.1-0.1,0.1-0.3,0-0.4l-5.1-5.1c-0.1-0.1-0.3-0.1-0.4,0
		L18.2,24.3c-0.1,0.1-0.3,0.1-0.4,0l-4.1-4.1c-0.1-0.1-0.3-0.1-0.4,0l-5.1,5.1C8.1,25.4,8.1,25.6,8.2,25.7z"/>
	<path class="st1" d="M0.7,18.2l4.6,4.6c0.1,0.1,0.3,0.1,0.4,0l12.1-11.2c0.1-0.1,0.3-0.1,0.4,0l4.1,4.1c0.1,0.1,0.3,0.1,0.4,0
		l5.1-5.1c0.1-0.1,0.1-0.3,0-0.4l-9.6-9.6c-0.1-0.1-0.3-0.1-0.4,0L12.5,6V3.8c0-0.1-0.1-0.3-0.3-0.3H6.7c-0.1,0-0.3,0.1-0.3,0.3v8.1
		c0,0.1,0,0.1-0.1,0.2l-5.7,5.7C0.6,17.9,0.6,18.1,0.7,18.2z"/>
</g>
<g class="badge" style="display: none">
		<circle cx="189" cy="64" r="64" fill="#bc2031" />
		<text x="189" y="112" text-anchor="middle" fill="#ffffff" style="font: caption; font-size: 128px"></text>
	</g>

	<g class="status">
		<circle cx="220" cy="220" r="24" style="display: none" />
		<path class="away" fill="#DB2323" d="M128 70C96 70 70 96 70 128s26 58 58 58c32 0 58-26 58-58S160 70 128 70zM128 171c-24 0-43-19-43-43S104 85 128 85s43 19 43 43S152 171 128 171zM164 128c0 4-3 7-7 7H128c-4 0-7-3-7-7V99c0-4 3-7 7-7s7 3 7 7v22h22C161 121 164 124 164 128z" style="display: none" />
		<path class="busy" fill="#DB2323" d="M128 70c-32 0-58 26-58 58s26 58 58 58 58-26 58-58-26-58-58-58zm43 58c0 9-3 18-8 25l-60-60c7-5 16-8 25-8 24 0 43 19 43 43zm-86 0c0-9 3-18 8-25l60 60c-7 5-16 8-25 8-24 0-43-19-43-43z" style="display: none" />
	</g>
</svg>
