<?xml version="1.0" encoding="utf-8"?>
<!-- Generator: Adobe Illustrator 23.0.1, SVG Export Plug-In . SVG Version: 6.00 Build 0)  -->
<svg version="1.1" id="Группа_1_1_" xmlns="http://www.w3.org/2000/svg" xmlns:xlink="http://www.w3.org/1999/xlink" x="0px"
	 y="0px" viewBox="0 0 1024 340" style="enable-background:new 0 0 1024 340;" xml:space="preserve">
<style type="text/css">
	.st0{fill:#0078C4;}
	.st1{fill:#009600;}
</style>
<g id="Chat">
	<g>
		<path class="st0" d="M361.48,258.66c-1.27,3.67-3.31,6.59-6.12,8.75c-2.9,2.25-6.26,3.38-10.06,3.38c-4.91,0-9.08-1.68-12.51-5.04
			c-3.43-3.36-5.14-7.5-5.14-12.4c0-4.81,1.69-8.88,5.07-12.19s7.48-4.97,12.3-4.97c3.99,0,7.44,1.09,10.36,3.26
			c2.92,2.17,4.94,5.17,6.05,9h-8.11c-1.85-3.64-4.62-5.46-8.29-5.46c-2.84,0-5.17,1-7,3.01c-1.82,2-2.73,4.44-2.73,7.31
			c0,2.84,0.93,5.32,2.78,7.45c1.85,2.13,4.19,3.19,7,3.19c3.74,0,6.49-1.76,8.25-5.27H361.48z"/>
		<path class="st0" d="M391.93,270.13h-6.95v-13.65c0-3.33-1.24-5-3.71-5c-2.78,0-4.17,1.88-4.17,5.64v13h-6.95v-35.63h6.95v14.02
			c1.29-2.1,3.33-3.15,6.1-3.15c2.8,0,4.96,0.82,6.47,2.45c1.51,1.63,2.26,3.87,2.26,6.71V270.13z"/>
		<path class="st0" d="M426.55,270.13h-6.86v-2.73c-0.74,1.08-1.78,1.92-3.1,2.52c-1.33,0.6-2.69,0.9-4.08,0.9
			c-3.52,0-6.41-1.26-8.67-3.79c-2.16-2.41-3.24-5.4-3.24-8.98c0-3.58,1.11-6.59,3.32-9.04s5.1-3.68,8.66-3.68
			c3.22,0,5.59,1.06,7.11,3.19v-2.45h6.86V270.13z M419.83,258.22c0-1.91-0.6-3.51-1.81-4.82c-1.2-1.31-2.77-1.96-4.68-1.96
			c-1.79,0-3.27,0.65-4.43,1.96c-1.16,1.31-1.74,2.87-1.74,4.68c0,1.78,0.6,3.35,1.81,4.7c1.21,1.35,2.69,2.03,4.45,2.03
			c1.76,0,3.27-0.65,4.52-1.96C419.2,261.55,419.83,260,419.83,258.22z"/>
		<path class="st0" d="M447.49,251.16h-3.29v18.97h-6.95v-18.97h-2.92v-5.09h2.92v-7.96h6.95v7.96h3.29V251.16z"/>
	</g>
</g>
<g id="Слой_5">
	<g id="Слой_3">
		<path class="st1" d="M405.07,193.31l-23.82-73.71h-22.72l-23.82,73.71h-8.29v20.28h86.92v-20.28H405.07z M369.9,150.37
			l13.85,42.94h-27.7L369.9,150.37z"/>
		<path class="st1" d="M451.61,213.59c-21.56,0-39.12-17.56-39.12-39.12s17.56-39.12,39.12-39.12s39.12,17.56,39.12,39.12
			S473.16,213.59,451.61,213.59z M451.61,153.91c-11.36,0-20.57,9.21-20.57,20.57c0,11.36,9.21,20.57,20.57,20.57
			c11.36,0,20.57-9.21,20.57-20.57C472.18,163.12,462.96,153.91,451.61,153.91z"/>
		<polygon class="st1" points="559.1,135.36 541.14,184.1 523.17,135.36 500.57,135.36 500.57,213.59 519.12,213.59 519.12,172.04 
			534.18,213.59 548.09,213.59 563.16,172.04 563.16,213.59 581.7,213.59 581.7,135.36 		"/>
		<polygon class="st1" points="668.04,119.72 644.28,119.72 619.37,153.91 619.37,119.6 596.19,119.6 596.19,213.59 619.37,213.59 
			619.37,179.4 644.28,213.59 668.04,213.59 633.85,166.66 		"/>
		<polygon class="st1" points="719.04,135.36 691.8,181.9 691.8,135.36 673.26,135.36 673.26,213.59 691.8,213.59 719.04,167.06 
			719.04,213.59 737.58,213.59 737.58,135.36 		"/>
		<polygon class="st1" points="814.65,135.36 796.11,135.36 780.17,160.11 764.24,135.36 745.69,135.36 770.9,174.48 745.69,213.59 
			764.24,213.59 780.17,188.85 796.11,213.59 814.65,213.59 789.45,174.48 		"/>
		<path class="st1" d="M850.87,213.59c-21.56,0-39.12-17.56-39.12-39.12s17.56-39.12,39.12-39.12s39.12,17.56,39.12,39.12
			S872.43,213.59,850.87,213.59z M850.87,153.91c-11.36,0-20.57,9.21-20.57,20.57c0,11.36,9.21,20.57,20.57,20.57
			s20.57-9.21,20.57-20.57C871.44,163.12,862.23,153.91,850.87,153.91z"/>
		<polygon class="st1" points="935.19,135.36 888.83,135.36 888.83,153.91 902.73,153.91 902.73,213.59 921.28,213.59 
			921.28,153.91 935.19,153.91 		"/>
	</g>
</g>
<g id="Слой_6">
	<g id="Слой_6_2_">
		<path class="st1" d="M135.01,215.16l54.42,54.42c0.55,0.55,1.72,0.55,2.27,0l97-97c0.55-0.55,0.55-1.72,0-2.27l-28.9-28.9
			c-0.55-0.55-1.72-0.55-2.27,0l-65.77,65.83c-0.55,0.55-1.72,0.55-2.27,0L166.24,184c-0.55-0.55-1.72-0.55-2.27,0l-28.96,28.9
			C134.46,213.51,134.46,214.61,135.01,215.16z"/>
		<path class="st0" d="M92.49,172.65l26.08,26.08c0.55,0.55,1.72,0.55,2.27,0l68.59-63.5c0.55-0.55,1.72-0.55,2.27,0l23.25,23.25
			c0.55,0.55,1.72,0.55,2.27,0l28.9-28.9c0.55-0.55,0.55-1.72,0-2.27L191.7,72.88c-0.55-0.55-1.72-0.55-2.27,0l-30.06,30.62V90.98
			c0-0.55-0.55-1.72-1.72-1.72h-31.17c-0.55,0-1.72,0.55-1.72,1.72v45.95c0,0.55,0,0.55-0.55,1.1l-32.33,32.33
			C91.94,170.93,91.94,172.09,92.49,172.65z"/>
	</g>
</g>
</svg>
