<!-- Generator: Adobe Illustrator 22.0.1, SVG Export Plug-In . SVG Version: 6.00 Build 0)  -->
<svg id="icon"  version="1.1"  xmlns="http://www.w3.org/2000/svg" xmlns:xlink="http://www.w3.org/1999/xlink" viewBox="0 0 256 256" style="enable-background:new 0 0 256 256;" >

	<defs>
		<clipPath id="icon-bubble-mask" clipPathUnits="objectBoundingBox">
			<path d="M41.6969487,124.026456 C30.0889845,114.878649 23.1213873,103.17255 23.1213873,90.4136809 C23.1213873,61.1362728 59.8093762,37.4022441 105.066304,37.4022441 C150.323232,37.4022441 187.011221,61.1362728 187.011221,90.4136809 C187.011221,119.691089 150.323232,143.425118 105.066304,143.425118 C93.912316,143.425118 83.2788238,141.983462 73.5867827,139.372472 L66.5009556,146.206206 C62.6508003,149.919383 58.1381119,153.279632 53.4342869,155.927536 C47.1994165,158.989423 41.0426011,160.659947 34.9512744,161.16967 C35.2948967,160.544948 35.6113103,159.912092 35.9509881,159.286387 C43.0509631,146.207835 44.9662833,134.454525 41.6969487,124.026456 Z" fill="#FFF" />
		</clipPath>
	</defs>
<style type="text/css">
	.st0{fill:#009600;}
	.st1{fill:#0078C4;}
	.st2{enable-background:new    ;}
	.st3{fill:#FFFFFF;}
</style>
<!-- transform="translate(0, 15) scale(1.23)" s -->
<g class="logo" troke="none" stroke-width="1" fill="none" fill-rule="evenodd">
		<path class="st0" d="M55.79,184.7l70.3,70.3c0.73,0.73,2.2,0.73,2.93,0l125.22-125.22c0.73-0.73,0.73-2.2,0-2.93L216.9,89.51
		c-0.73-0.73-2.2-0.73-2.93,0l-84.94,84.94c-0.73,0.73-2.2,0.73-2.93,0l-30.02-30.02c-0.73-0.73-2.2-0.73-2.93,0l-37.35,37.35
		C55.06,182.51,55.06,183.97,55.79,184.7z"/>
	<path class="st1" d="M0.87,129.78l33.69,33.69c0.73,0.73,2.2,0.73,2.93,0l88.61-82.02c0.73-0.73,2.2-0.73,2.93,0l30.02,30.02
		c0.73,0.73,2.2,0.73,2.93,0l37.35-37.35c0.73-0.73,0.73-2.2,0-2.93l-70.3-70.3c-0.73-0.73-2.2-0.73-2.93,0L87.28,40.44V24.33
		c0-0.73-0.73-2.2-2.2-2.2H44.81c-0.73,0-2.2,0.73-2.2,2.2v59.32c0,0.73,0,0.73-0.73,1.46L0.14,126.85
		C0.14,127.58,0.14,129.05,0.87,129.78z"/>
</g>
<path class="st1" d="M243.33,247.97H114.52c-6.96,0-12.67-5.64-12.67-12.67v-43.86c0-6.96,5.64-12.67,12.67-12.67h128.81
	c6.96,0,12.67,5.64,12.67,12.67v43.86C256,242.33,250.36,247.97,243.33,247.97z"/>
<g class="st2">
	<path class="st3" d="M150.84,223.29c-0.29,5.79-1.9,10.25-4.91,13.25s-7.25,4.47-12.74,4.47c-5.79,0-10.18-1.9-13.25-5.71
		s-4.61-9.23-4.61-16.26v-8.57c0-7.03,1.61-12.45,4.76-16.26c3.15-3.81,7.62-5.71,13.25-5.71c5.57,0,9.81,1.54,12.67,4.69
		c2.86,3.08,4.54,7.54,4.91,13.4h-10.33c-0.07-3.59-0.66-6.08-1.68-7.47s-2.86-2.05-5.57-2.05c-2.78,0-4.69,0.95-5.86,2.93
		c-1.17,1.9-1.76,5.13-1.83,9.52v9.67c0,5.05,0.59,8.57,1.68,10.47c1.1,1.9,3.08,2.86,5.86,2.86c2.71,0,4.61-0.66,5.64-1.98
		c1.03-1.32,1.61-3.73,1.76-7.18h10.25V223.29z"/>
	<path class="st3" d="M166.37,205.65c2.12-2.71,4.76-4.03,7.91-4.03c3.44,0,6.08,1.24,7.91,3.66c1.83,2.42,2.71,6.08,2.71,10.84
		v24.17h-9.96v-24.02c0-2.2-0.37-3.81-1.03-4.83s-1.83-1.46-3.37-1.46c-1.83,0-3.22,0.81-4.17,2.49v27.83h-9.96v-53.9h9.96
		C166.37,186.39,166.37,205.65,166.37,205.65z"/>
	<path class="st3" d="M210.09,240.28c-0.29-0.59-0.59-1.54-0.88-2.93c-1.76,2.42-4.17,3.66-7.25,3.66c-3.15,0-5.79-1.03-7.91-3.15
		c-2.12-2.12-3.15-4.83-3.15-8.2c0-3.95,1.24-7.03,3.81-9.23c2.56-2.2,6.22-3.3,10.98-3.37h3v-3.08c0-1.68-0.29-2.93-0.88-3.59
		c-0.59-0.66-1.46-1.03-2.56-1.03c-2.49,0-3.73,1.46-3.73,4.32h-9.96c0-3.51,1.32-6.37,3.95-8.71s5.93-3.44,9.96-3.44
		c4.17,0,7.4,1.1,9.67,3.22s3.44,5.27,3.44,9.3v17.87c0.07,3.3,0.51,5.86,1.39,7.69v0.59h-9.89V240.28z M204.23,233.18
		c1.1,0,2.05-0.22,2.78-0.66s1.32-0.95,1.76-1.61V223h-2.42c-1.68,0-3,0.51-3.95,1.61c-0.95,1.1-1.46,2.49-1.46,4.32
		C200.93,231.79,202.03,233.18,204.23,233.18z"/>
	<path class="st3" d="M237.4,192.98v9.3h5.05v7.47h-5.05v18.89c0,1.46,0.22,2.49,0.59,3.08s1.17,0.88,2.34,0.88
		c0.95,0,1.76-0.07,2.34-0.22l-0.07,7.69c-1.68,0.66-3.51,0.95-5.49,0.95c-6.37,0-9.67-3.66-9.74-11.06v-20.21h-4.39v-7.47h4.39
		v-9.3C227.37,192.98,237.4,192.98,237.4,192.98z"/>
</g>
<g class="badge" style="display: none">
		<circle cx="189" cy="64" r="64" fill="#bc2031" />
		<text x="189" y="112" text-anchor="middle" fill="#ffffff" style="font: caption; font-size: 128px"></text>
		<!-- <circle cx="32" cy="20" r="8" fill="#bc2031"/>
		<text x="189" y="112" text-anchor="middle" fill="#ffffff" style="font: caption; font-size: 128px"></text> -->
	</g>

	<g class="status">
		<circle cx="220" cy="220" r="24" style="display: none" />
		<path class="away" fill="#FF910A" d="M128 70C96 70 70 96 70 128s26 58 58 58c32 0 58-26 58-58S160 70 128 70zM128 171c-24 0-43-19-43-43S104 85 128 85s43 19 43 43S152 171 128 171zM164 128c0 4-3 7-7 7H128c-4 0-7-3-7-7V99c0-4 3-7 7-7s7 3 7 7v22h22C161 121 164 124 164 128z" style="display: none" />
		<path class="busy" fill="#E70F00" d="M128 70c-32 0-58 26-58 58s26 58 58 58 58-26 58-58-26-58-58-58zm43 58c0 9-3 18-8 25l-60-60c7-5 16-8 25-8 24 0 43 19 43 43zm-86 0c0-9 3-18 8-25l60 60c-7 5-16 8-25 8-24 0-43-19-43-43z" style="display: none" />
	</g>
</svg>
